<mxfile host="app.diagrams.net" modified="2023-06-15T17:49:21.187Z" agent="Mozilla/5.0 (Windows NT 10.0; Win64; x64) AppleWebKit/537.36 (KHTML, like Gecko) Chrome/114.0.0.0 Safari/537.36" etag="gA2t-m-IR89eZDgy8pV_" version="21.4.0" type="device">
  <diagram id="C5RBs43oDa-KdzZeNtuy" name="Page-1">
    <mxGraphModel dx="794" dy="1607" grid="1" gridSize="10" guides="1" tooltips="1" connect="1" arrows="1" fold="1" page="1" pageScale="1" pageWidth="827" pageHeight="1169" math="0" shadow="0">
      <root>
        <mxCell id="WIyWlLk6GJQsqaUBKTNV-0" />
        <mxCell id="WIyWlLk6GJQsqaUBKTNV-1" parent="WIyWlLk6GJQsqaUBKTNV-0" />
        <mxCell id="Z8Xc0VcVnCXP75QmYLYm-0" value="Sistema&lt;br&gt;Copperton" style="ellipse;whiteSpace=wrap;html=1;aspect=fixed;" vertex="1" parent="WIyWlLk6GJQsqaUBKTNV-1">
          <mxGeometry x="440" y="-520" width="120" height="120" as="geometry" />
        </mxCell>
        <mxCell id="Z8Xc0VcVnCXP75QmYLYm-1" value="CLIENTE" style="rounded=1;whiteSpace=wrap;html=1;" vertex="1" parent="WIyWlLk6GJQsqaUBKTNV-1">
          <mxGeometry x="200" y="-600" width="90" height="50" as="geometry" />
        </mxCell>
        <mxCell id="Z8Xc0VcVnCXP75QmYLYm-3" value="PRODUTO" style="rounded=1;whiteSpace=wrap;html=1;" vertex="1" parent="WIyWlLk6GJQsqaUBKTNV-1">
          <mxGeometry x="680" y="-600" width="90" height="50" as="geometry" />
        </mxCell>
        <mxCell id="Z8Xc0VcVnCXP75QmYLYm-4" value="CARRINHO" style="rounded=1;whiteSpace=wrap;html=1;" vertex="1" parent="WIyWlLk6GJQsqaUBKTNV-1">
          <mxGeometry x="680" y="-360" width="90" height="50" as="geometry" />
        </mxCell>
        <mxCell id="Z8Xc0VcVnCXP75QmYLYm-12" value="FORNECEDOR" style="rounded=1;whiteSpace=wrap;html=1;" vertex="1" parent="WIyWlLk6GJQsqaUBKTNV-1">
          <mxGeometry x="200" y="-360" width="90" height="50" as="geometry" />
        </mxCell>
        <mxCell id="Z8Xc0VcVnCXP75QmYLYm-15" value="ENTREGA O PEDIDO" style="endArrow=classic;html=1;rounded=0;entryX=1;entryY=0.76;entryDx=0;entryDy=0;entryPerimeter=0;exitX=0.246;exitY=0.064;exitDx=0;exitDy=0;exitPerimeter=0;" edge="1" parent="WIyWlLk6GJQsqaUBKTNV-1" source="Z8Xc0VcVnCXP75QmYLYm-0" target="Z8Xc0VcVnCXP75QmYLYm-1">
          <mxGeometry width="50" height="50" relative="1" as="geometry">
            <mxPoint x="470" y="-520" as="sourcePoint" />
            <mxPoint x="370" y="-560" as="targetPoint" />
            <Array as="points">
              <mxPoint x="470" y="-562" />
              <mxPoint x="400" y="-562" />
            </Array>
          </mxGeometry>
        </mxCell>
        <mxCell id="Z8Xc0VcVnCXP75QmYLYm-16" value="FAZ O PEDIDO" style="endArrow=classic;html=1;rounded=0;entryX=0;entryY=0.333;entryDx=0;entryDy=0;entryPerimeter=0;fontColor=#000000;fontFamily=Verdana;" edge="1" parent="WIyWlLk6GJQsqaUBKTNV-1" target="Z8Xc0VcVnCXP75QmYLYm-0">
          <mxGeometry width="50" height="50" relative="1" as="geometry">
            <mxPoint x="220" y="-540" as="sourcePoint" />
            <mxPoint x="440" y="-440" as="targetPoint" />
            <Array as="points">
              <mxPoint x="220" y="-480" />
            </Array>
            <mxPoint as="offset" />
          </mxGeometry>
        </mxCell>
        <mxCell id="Z8Xc0VcVnCXP75QmYLYm-17" value="SOLICITA PRODUTOS" style="endArrow=classic;html=1;rounded=0;exitX=0.192;exitY=0.911;exitDx=0;exitDy=0;exitPerimeter=0;entryX=1.047;entryY=0.824;entryDx=0;entryDy=0;entryPerimeter=0;" edge="1" parent="WIyWlLk6GJQsqaUBKTNV-1" source="Z8Xc0VcVnCXP75QmYLYm-0" target="Z8Xc0VcVnCXP75QmYLYm-12">
          <mxGeometry x="0.3388" y="-1" width="50" height="50" relative="1" as="geometry">
            <mxPoint x="470" y="-245" as="sourcePoint" />
            <mxPoint x="300" y="-320" as="targetPoint" />
            <Array as="points">
              <mxPoint x="463" y="-320" />
            </Array>
            <mxPoint as="offset" />
          </mxGeometry>
        </mxCell>
        <mxCell id="Z8Xc0VcVnCXP75QmYLYm-18" value="ENTREGA PRODUTOS" style="endArrow=classic;html=1;rounded=0;exitX=0.221;exitY=-0.083;exitDx=0;exitDy=0;exitPerimeter=0;" edge="1" parent="WIyWlLk6GJQsqaUBKTNV-1" source="Z8Xc0VcVnCXP75QmYLYm-12">
          <mxGeometry width="50" height="50" relative="1" as="geometry">
            <mxPoint x="220" y="-370" as="sourcePoint" />
            <mxPoint x="450" y="-430" as="targetPoint" />
            <Array as="points">
              <mxPoint x="220" y="-430" />
            </Array>
          </mxGeometry>
        </mxCell>
        <mxCell id="Z8Xc0VcVnCXP75QmYLYm-19" value="SOLICITA PRODUTO" style="endArrow=classic;html=1;rounded=0;exitX=0.739;exitY=0.051;exitDx=0;exitDy=0;exitPerimeter=0;entryX=0;entryY=0.75;entryDx=0;entryDy=0;" edge="1" parent="WIyWlLk6GJQsqaUBKTNV-1" source="Z8Xc0VcVnCXP75QmYLYm-0" target="Z8Xc0VcVnCXP75QmYLYm-3">
          <mxGeometry width="50" height="50" relative="1" as="geometry">
            <mxPoint x="520" y="-520" as="sourcePoint" />
            <mxPoint x="600" y="-560" as="targetPoint" />
            <Array as="points">
              <mxPoint x="529" y="-562" />
            </Array>
          </mxGeometry>
        </mxCell>
        <mxCell id="Z8Xc0VcVnCXP75QmYLYm-20" value="VERIFICA DISPONIBILIDADE" style="endArrow=classic;html=1;rounded=0;entryX=1.001;entryY=0.324;entryDx=0;entryDy=0;entryPerimeter=0;exitX=0.869;exitY=1.037;exitDx=0;exitDy=0;exitPerimeter=0;" edge="1" parent="WIyWlLk6GJQsqaUBKTNV-1" source="Z8Xc0VcVnCXP75QmYLYm-3" target="Z8Xc0VcVnCXP75QmYLYm-0">
          <mxGeometry width="50" height="50" relative="1" as="geometry">
            <mxPoint x="570" y="-470" as="sourcePoint" />
            <mxPoint x="650" y="-510" as="targetPoint" />
            <Array as="points">
              <mxPoint x="758" y="-480" />
            </Array>
          </mxGeometry>
        </mxCell>
        <mxCell id="Z8Xc0VcVnCXP75QmYLYm-22" value="VERIFICA E PROSSEGUE PARA PAGAMENTO" style="endArrow=classic;html=1;rounded=0;entryX=0.966;entryY=0.747;entryDx=0;entryDy=0;entryPerimeter=0;exitX=0.886;exitY=-0.03;exitDx=0;exitDy=0;exitPerimeter=0;" edge="1" parent="WIyWlLk6GJQsqaUBKTNV-1" source="Z8Xc0VcVnCXP75QmYLYm-4" target="Z8Xc0VcVnCXP75QmYLYm-0">
          <mxGeometry width="50" height="50" relative="1" as="geometry">
            <mxPoint x="670" y="-370" as="sourcePoint" />
            <mxPoint x="550" y="-427" as="targetPoint" />
            <Array as="points">
              <mxPoint x="760" y="-430" />
            </Array>
          </mxGeometry>
        </mxCell>
        <mxCell id="Z8Xc0VcVnCXP75QmYLYm-23" value="RESERVA ITENS DO CLIENTE" style="endArrow=classic;html=1;rounded=0;exitX=0.784;exitY=0.919;exitDx=0;exitDy=0;exitPerimeter=0;entryX=-0.021;entryY=0.78;entryDx=0;entryDy=0;entryPerimeter=0;" edge="1" parent="WIyWlLk6GJQsqaUBKTNV-1" source="Z8Xc0VcVnCXP75QmYLYm-0" target="Z8Xc0VcVnCXP75QmYLYm-4">
          <mxGeometry x="0.1608" width="50" height="50" relative="1" as="geometry">
            <mxPoint x="540" y="-340" as="sourcePoint" />
            <mxPoint x="620" y="-380" as="targetPoint" />
            <Array as="points">
              <mxPoint x="534" y="-320" />
            </Array>
            <mxPoint as="offset" />
          </mxGeometry>
        </mxCell>
      </root>
    </mxGraphModel>
  </diagram>
</mxfile>
